# xmcd CD database file
#
# Track frame offsets:
#	150
#	58397
#	93122
#	127284
#	169959
#
# Disc length: 2614 seconds
#
# Revision: 1
# Processed by: cddbd v1.5.2PL0 Copyright (c) Steve Scherf et al.
# Submitted via: jetAudio 7
#
DISCID=470a3405
DTITLE=Oded Tzur - Translator's Note
DYEAR=2017
DGENRE=Jazz
TTITLE0=Single Mother
TTITLE1=Welcome
TTITLE2=The Whale Song
TTITLE3=The Three Statements of Garab Dorje
TTITLE4=Lonnie's Lament
EXTD=YEAR: 2017
EXTT0=
EXTT1=
EXTT2=
EXTT3=
EXTT4=
PLAYORDER=
